# xmcd
#
# Track frame offsets:
#	150
#	16334
#	33834
#	53560
#	68673
#	88640
#	106214
#	123890
#	137773
#	155985
#	173742
#	193698
#	209192
#	225221
#	243321
#	260409
#	277943
#	296664
#	313747
#	333293
#
# Disc length: 4720 seconds
#
# Revision: 0
# Processed by: cddbd v1.5.2PL0 Copyright (c) Steve Scherf et al.
# Submitted via: EasyCDDAExtractor 2010.6.0.0
#
DISCID=17126e14
DTITLE=Various Artist - Testament Van De Eighties cd 6
DYEAR=2011
DGENRE=Pop
TTITLE0=Murray Head - One Night In Bangkok
TTITLE1=Tears For Fears - Shout
TTITLE2=Commodores - Nightshift
TTITLE3=King - Love and Pride
TTITLE4=Whitney Houston - All At Once
TTITLE5=Debarge - The Rhythm Of The Night
TTITLE6=Godley and Creme - Cry
TTITLE7=Alison Moyet - That ´Ole Devil Called Love
TTITLE8=Frank Boeijen Groep - Kronenburg Park
TTITLE9=Mary Jane Girls - In My House
TTITLE10=Chris Rea - Josephine
TTITLE11=Propaganda - Duel (Eye To Eye)
TTITLE12=Marillion - Kayleigh
TTITLE13=Kool and The Gang - Cherish
TTITLE14=A-Ha - Take On Me
TTITLE15=Elton John - Nikita
TTITLE16=Dire Straits - Walk Of Life
TTITLE17=Rob De Nijs - Alles Wat Ademt
TTITLE18=Feargal Sharkey - A Good Heart
TTITLE19=Mr. Mister - Broken Wings
EXTD=
EXTT0=
EXTT1=
EXTT2=
EXTT3=
EXTT4=
EXTT5=
EXTT6=
EXTT7=
EXTT8=
EXTT9=
EXTT10=
EXTT11=
EXTT12=
EXTT13=
EXTT14=
EXTT15=
EXTT16=
EXTT17=
EXTT18=
EXTT19=
PLAYORDER=
